<svg xmlns="http://www.w3.org/2000/svg" width="200.507" height="144.528" viewBox="0 0 200.507 144.528"><defs><style>.a{fill:#1e232a;}</style></defs><g transform="translate(43.549)"><g transform="translate(-43.549 111.279)"><path class="a" d="M130.16,48.2h5.624V61.573h15.292V48.2h5.63V80.357h-5.63V66.805H135.784V80.357H130.16Z" transform="translate(-130.16 -47.654)"/><path class="a" d="M201.75,64v-.1a16.756,16.756,0,0,1,33.511-.1V63.9a16.756,16.756,0,0,1-33.511.1m27.6,0v-.1c0-6.247-4.531-11.438-10.9-11.438s-10.8,5.1-10.8,11.348v.089c0,6.247,4.531,11.39,10.891,11.39S229.352,70.25,229.352,64" transform="translate(-159.236 -47.28)"/><path class="a" d="M277.05,48.2h6.229l9.65,24.716L302.544,48.2h6.087L295.358,80.589H290.37Z" transform="translate(-189.82 -47.654)"/><path class="a" d="M354.89,48.2h23.754v5.06H360.52v8.355h16.07v5.054H360.52V75.3h18.362v5.054H354.89Z" transform="translate(-221.434 -47.654)"/><path class="a" d="M421.94,48.2h14.282c4.026,0,7.186,1.194,9.246,3.219a9.742,9.742,0,0,1,2.654,6.936v.089c0,5.285-3.159,8.45-7.6,9.739l8.652,12.174h-6.681l-7.875-11.206H427.57V80.357h-5.63Zm13.872,15.945c4.026,0,6.592-2.114,6.592-5.374v-.1c0-3.444-2.47-5.327-6.639-5.327h-8.2v10.79h8.243Z" transform="translate(-248.667 -47.654)"/></g><g transform="translate(28.918)"><g transform="translate(0 14.347)"><path class="a" d="M20.191,51.525V70.462L13.659,66.5V32.8L0,24.16V75.338L35.037,95.327V60.444Z" transform="translate(0 -24.16)"/></g><g transform="translate(20.191)"><path class="a" d="M48.846,43.9V24.918l7.72,3.973V62.669l13.065,8.658v-51.3L34,0V34.966Z" transform="translate(-34)"/></g></g></g></svg>